<svg width="59" height="24" viewBox="0 0 59 24" fill="none" xmlns="http://www.w3.org/2000/svg">
<path d="M2.59121 18.384H0.262207V6.888H2.11101L2.59121 7.896C2.97538 7.528 3.43958 7.224 3.98382 6.984C4.52805 6.744 5.12031 6.624 5.76058 6.624C6.17676 6.624 6.64897 6.688 7.1772 6.816C7.70543 6.944 8.19364 7.184 8.64183 7.536C9.10603 7.888 9.4902 8.376 9.79433 9C10.1145 9.624 10.2745 10.432 10.2745 11.424V18.384H8.06558V11.4C8.06558 10.904 7.98555 10.488 7.82548 10.152C7.68142 9.8 7.48133 9.52 7.22522 9.312C6.98511 9.104 6.70499 8.96 6.38485 8.88C6.08072 8.784 5.76058 8.736 5.42444 8.736C5.16833 8.736 4.8722 8.784 4.53606 8.88C4.21592 8.976 3.91179 9.136 3.62366 9.36C3.33554 9.568 3.08743 9.84 2.87934 10.176C2.68726 10.496 2.59121 10.896 2.59121 11.376V18.384Z" fill="#495057"/>
<path d="M13.1361 23.136V6.888H14.9849L15.4651 8.088C15.9293 7.624 16.4575 7.264 17.0498 7.008C17.658 6.752 18.3383 6.624 19.0907 6.624C19.891 6.624 20.6273 6.784 21.2996 7.104C21.9879 7.408 22.5802 7.832 23.0764 8.376C23.5726 8.92 23.9568 9.56 24.2289 10.296C24.517 11.032 24.6611 11.816 24.6611 12.648C24.6611 13.48 24.517 14.264 24.2289 15C23.9568 15.736 23.5726 16.376 23.0764 16.92C22.5802 17.464 21.9879 17.896 21.2996 18.216C20.6273 18.52 19.891 18.672 19.0907 18.672C18.3063 18.672 17.618 18.544 17.0258 18.288C16.4335 18.016 15.9133 17.632 15.4651 17.136V23.136H13.1361ZM18.8986 8.736C18.4344 8.736 17.9942 8.816 17.578 8.976C17.1618 9.12 16.7937 9.36 16.4735 9.696C16.1694 10.016 15.9293 10.424 15.7532 10.92C15.5771 11.4 15.4891 11.976 15.4891 12.648C15.4891 13.368 15.5771 13.984 15.7532 14.496C15.9293 14.992 16.1694 15.4 16.4735 15.72C16.7937 16.024 17.1618 16.248 17.578 16.392C17.9942 16.536 18.4344 16.608 18.8986 16.608C19.3628 16.608 19.803 16.504 20.2192 16.296C20.6353 16.088 20.9955 15.808 21.2996 15.456C21.6037 15.088 21.8439 14.664 22.0199 14.184C22.196 13.704 22.284 13.192 22.284 12.648C22.284 12.104 22.196 11.592 22.0199 11.112C21.8439 10.632 21.6037 10.216 21.2996 9.864C20.9955 9.512 20.6353 9.24 20.2192 9.048C19.803 8.84 19.3628 8.736 18.8986 8.736Z" fill="#495057"/>
<path d="M37.5895 6.888V18.384H35.6207L35.2605 17.064C34.8604 17.592 34.3481 17.992 33.7239 18.264C33.0996 18.536 32.4673 18.672 31.827 18.672C31.0267 18.672 30.2744 18.52 29.5701 18.216C28.8818 17.896 28.2735 17.464 27.7453 16.92C27.2331 16.376 26.8249 15.736 26.5207 15C26.2166 14.264 26.0646 13.48 26.0646 12.648C26.0646 11.816 26.2166 11.032 26.5207 10.296C26.8249 9.56 27.2331 8.92 27.7453 8.376C28.2735 7.832 28.8818 7.408 29.5701 7.104C30.2744 6.784 31.0267 6.624 31.827 6.624C32.4673 6.624 33.0836 6.752 33.6758 7.008C34.2681 7.248 34.7963 7.632 35.2605 8.16L35.6207 6.888H37.5895ZM31.827 16.608C32.2912 16.608 32.7314 16.504 33.1476 16.296C33.5638 16.088 33.924 15.808 34.2281 15.456C34.5322 15.088 34.7723 14.664 34.9484 14.184C35.1245 13.704 35.2125 13.192 35.2125 12.648C35.2125 12.104 35.1245 11.592 34.9484 11.112C34.7723 10.632 34.5322 10.216 34.2281 9.864C33.924 9.496 33.5638 9.208 33.1476 9C32.7314 8.792 32.2912 8.688 31.827 8.688C31.3628 8.688 30.9227 8.792 30.5065 9C30.0903 9.208 29.7301 9.496 29.426 9.864C29.1219 10.216 28.8818 10.632 28.7057 11.112C28.5296 11.592 28.4416 12.104 28.4416 12.648C28.4416 13.192 28.5296 13.704 28.7057 14.184C28.8818 14.664 29.1219 15.088 29.426 15.456C29.7301 15.808 30.0903 16.088 30.5065 16.296C30.9227 16.504 31.3628 16.608 31.827 16.608Z" fill="#495057"/>
<path d="M46.2029 18.36C45.5466 18.584 44.8983 18.72 44.258 18.768C43.6178 18.816 43.0415 18.72 42.5293 18.48C42.0171 18.256 41.6009 17.856 41.2808 17.28C40.9606 16.688 40.8005 15.864 40.8005 14.808V8.976H39.1198V7.368L40.8005 6.888V3.816H43.1296V6.888H46.2509V8.976H43.1296V15.168C43.1296 15.552 43.1696 15.856 43.2496 16.08C43.3456 16.304 43.4977 16.472 43.7058 16.584C43.9139 16.696 44.186 16.752 44.5222 16.752C44.8583 16.752 45.2665 16.72 45.7467 16.656L46.2029 18.36Z" fill="#495057"/>
<path d="M50.4959 18.384H48.1669V0.863999H50.4959V7.944C50.9281 7.464 51.3762 7.128 51.8405 6.936C52.3207 6.728 52.8729 6.624 53.4972 6.624C54.2975 6.624 55.0098 6.784 55.6341 7.104C56.2744 7.408 56.8186 7.832 57.2668 8.376C57.715 8.92 58.0511 9.56 58.2752 10.296C58.5153 11.032 58.6354 11.816 58.6354 12.648V18.384H56.2824V12.648C56.2824 12.104 56.2023 11.592 56.0423 11.112C55.8982 10.632 55.6901 10.216 55.418 9.864C55.1619 9.512 54.8577 9.24 54.5056 9.048C54.1695 8.84 53.8013 8.736 53.4011 8.736C53.065 8.736 52.7288 8.808 52.3927 8.952C52.0565 9.08 51.7444 9.296 51.4563 9.6C51.1842 9.904 50.9521 10.304 50.76 10.8C50.5839 11.296 50.4959 11.896 50.4959 12.6V18.384Z" fill="#495057"/>
</svg>
