<svg width="29" height="32" viewBox="0 0 29 32" fill="none" xmlns="http://www.w3.org/2000/svg">
<path fill-rule="evenodd" clip-rule="evenodd" d="M13.78 0.583927L2.50355 7.13469C0.987114 8.01532 0.0446812 9.88726 0.0372405 12.544L0.0102539 22.2423L4.22744 24.6769L4.23399 24.673L4.23394 24.688L12.7079 19.7652C12.7085 19.7956 12.709 19.826 12.7093 19.8565L12.7083 19.857L12.6814 29.5553L16.8986 31.9889L28.176 25.4375L23.9588 23.0039L23.9868 13.3056L15.2358 18.3889L23.9868 13.3039C23.9808 12.5975 23.8707 11.8959 23.6601 11.2217C23.2138 9.77629 22.4475 8.44994 21.4181 7.34114C20.9373 6.82005 20.3834 6.37176 19.7732 6.0104C19.2719 5.70439 18.7101 5.51055 18.1266 5.44222C17.6612 5.3891 17.1908 5.4817 16.7804 5.70725L16.7674 5.71469C16.7609 5.7183 16.7542 5.72219 16.7475 5.7262L11.3067 8.88649L11.3147 5.99327L11.3157 5.99274C11.3231 3.33651 12.2641 1.46481 13.78 0.583927Z" fill="#B62463"/>
<path fill-rule="evenodd" clip-rule="evenodd" d="M13.7726 0.570315L2.49518 7.12165L2.52494 7.1077C2.60903 7.05976 2.69456 7.01491 2.78154 6.97318L2.50506 7.13379C4.04092 6.24201 6.16703 6.36606 8.50883 7.71772L8.51278 7.71543C8.51356 7.71589 8.51432 7.71634 8.5151 7.7168L8.51347 7.71774C8.56385 7.74684 8.61414 7.77639 8.66432 7.80638C9.04396 8.03736 9.4124 8.28545 9.76852 8.54975C11.5917 9.91726 13.2231 11.8495 14.4675 14.0031L14.4688 14.0024C15.9966 16.641 16.9338 19.6131 16.9265 22.2879L16.9328 22.2841V22.2864L16.9255 22.2906L16.8986 31.9889L16.9051 31.985V32L28.1825 25.4496L28.2104 15.743L28.2038 15.7467V15.7458L28.2086 15.743C28.1973 14.3314 27.9779 12.9291 27.5573 11.5816C26.6648 8.69109 25.1329 6.03846 23.075 3.82041C22.1147 2.77782 21.0071 1.8812 19.7872 1.15896C18.6466 0.50057 17.5386 0.116511 16.4948 0.0235178C15.4872 -0.068545 14.582 0.110001 13.8034 0.553576L13.7726 0.570315Z" fill="#FD4974"/>
<path fill-rule="evenodd" clip-rule="evenodd" d="M16.9083 21.6076C16.9209 21.8371 16.9271 22.065 16.9264 22.2906L16.8957 31.9889H16.8986L16.9264 22.2906C16.9271 22.0704 16.9212 21.848 16.9092 21.624C16.9213 21.8471 16.9283 22.0706 16.9302 22.2944L16.9022 32L12.672 29.5589L12.699 19.8524C12.7074 17.1797 10.8197 13.912 8.49205 12.5691C6.16437 11.2263 4.26556 12.3088 4.25812 14.9814L4.23114 24.688L0 22.246L0.0279121 12.5404C0.0279121 11.2291 0.258637 10.0872 0.702404 9.14517C1.13128 8.23384 1.74344 7.54849 2.52213 7.10491C3.30082 6.66134 4.20696 6.48279 5.21449 6.57485C6.25739 6.66785 7.36542 7.0519 8.506 7.71029C9.72622 8.43199 10.8339 9.32869 11.7939 10.3717C12.8233 11.474 13.7226 12.6909 14.474 13.9985C15.2331 15.3025 15.8387 16.6899 16.2789 18.1329C16.6161 19.213 16.8239 20.3282 16.8989 21.4554C16.55 16.2793 12.9261 10.2668 8.50879 7.71774C8.4673 7.69379 8.42587 7.67022 8.3845 7.64705C4.03082 5.20731 0.454684 7.02416 0.0712058 11.7187C0.459699 7.02379 4.03223 5.2076 8.3845 7.64705C8.42586 7.67022 8.46729 7.69379 8.50878 7.71774C12.9308 10.2695 16.5578 16.2922 16.9001 21.472C16.8997 21.4665 16.8993 21.4609 16.8989 21.4554C16.9027 21.5116 16.9062 21.5679 16.9092 21.624C16.9088 21.6185 16.9086 21.6131 16.9083 21.6076ZM4.22742 24.6759L4.22648 24.6754L4.25345 14.9795C4.24062 14.3956 4.35588 13.8161 4.59116 13.2815C4.60727 13.245 4.6243 13.209 4.64227 13.1735C4.62465 13.2084 4.60792 13.2437 4.59211 13.2796C4.35683 13.8142 4.24156 14.3937 4.2544 14.9776L4.22742 24.6759ZM6.86167 11.9951C7.44067 12.0646 7.99798 12.2578 8.49576 12.5617C9.10633 12.9222 9.66053 13.3706 10.1406 13.8925C10.6554 14.4447 11.1052 15.054 11.4812 15.7086C11.8604 16.3604 12.1629 17.0538 12.3827 17.7749C12.5918 18.4441 12.7017 19.1402 12.7091 19.8412C12.7012 19.1401 12.5906 18.444 12.3809 17.7749C12.161 17.0538 11.8585 16.3604 11.4793 15.7086C11.1033 15.054 10.6535 14.4447 10.1387 13.8925C9.65845 13.3709 9.10429 12.9226 8.49391 12.5617C7.9967 12.2581 7.44003 12.0649 6.86167 11.9951ZM12.7092 19.857C12.7092 19.8518 12.7091 19.8465 12.7091 19.8412C12.7091 19.8465 12.7092 19.8518 12.7092 19.857Z" fill="#D9356C"/>
</svg>
